<?xml version="1.0" encoding="utf-8"?>
<!-- Generator: Adobe Illustrator 27.5.0, SVG Export Plug-In . SVG Version: 6.00 Build 0)  -->
<svg version="1.1" id="_x3C_Layer_x3E_" xmlns="http://www.w3.org/2000/svg" xmlns:xlink="http://www.w3.org/1999/xlink" x="0px"
	 y="0px" viewBox="0 0 2760 1840" style="enable-background:new 0 0 2760 1840;" xml:space="preserve">
<rect style="fill:#FFFFFF;" width="2760" height="1840"/>
<g>
	<g>
		<path style="fill:#EBF3FA;" d="M175.513,1461.139c0,0-130.978-238.419,37.016-486.551
			c167.994-248.131,350.728-91.151,445.862-305.855c95.135-214.705,332.919-306.667,597.335-231.17
			c264.415,75.497,406.048,202.538,632.437,164.938c254.23-42.225,468.422-44.03,568.08,166.994
			c99.657,211.025-54.1,326.061,25.626,433.837s141.871,88.995,123.611,259.089L175.513,1461.139z"/>
	</g>
	<g style="opacity:0.8;">
		<polygon style="fill:#FFFFFF;" points="1345.303,641.343 1128.169,1174.832 1546.411,1230.845 1566.15,745.766 		"/>
	</g>
	<g style="opacity:0.8;">
		<polygon style="fill:#FFFFFF;" points="985.027,733.805 1012.01,1207.611 1466.736,1189.031 1234.561,615.817 		"/>
	</g>
	<g>
		<g>
			<g>
				<g>
					<path style="fill:#FFA561;" d="M1479.619,895.72h-313.623v-35.223c0-11.331,9.186-20.518,20.517-20.518h270.511
						c12.479,0,22.596,10.117,22.596,22.598V895.72z"/>
				</g>
				<g>
					<rect x="1331.613" y="895.72" style="fill:#C9D4F8;" width="97.954" height="557.205"/>
				</g>
			</g>
			<g>
				<g>
					<polygon style="fill:#9DB0F4;" points="1198.34,1033.19 1170.816,1030.331 1178.514,903.665 1218.365,907.804 					"/>
				</g>
			</g>
			<g>
				<g>
					<path style="fill:#9DB0F4;" d="M1176.718,1046.449l-70.301-56.605l-3.09-3.373c5.653-9.045,17.569-11.794,26.614-6.14
						l63.352,39.6L1176.718,1046.449z"/>
				</g>
			</g>
			<g>
				<path style="fill:#FFA561;" d="M1137.914,1036.325l-0.049,0.025c-5,2.569-11.137,0.599-13.706-4.401L1099.519,984
					c-2.57-5-0.601-11.138,4.4-13.707l4.859-2.496c5.356-2.754,11.921-0.278,14.126,5.328l19.83,50.42
					C1144.648,1028.411,1142.564,1033.936,1137.914,1036.325z"/>
			</g>
			<g>
				
					<rect x="1150.374" y="1033.411" transform="matrix(0.9089 -0.4171 0.4171 0.9089 -338.8407 576.9839)" style="fill:#233862;" width="1.02" height="60.891"/>
			</g>
			<g>
				<path style="fill:#233862;" d="M1166.788,1035.398c-3.072-10.63,3.055-21.736,13.684-24.809
					c10.628-3.071,21.735,3.055,24.808,13.684c3.071,10.63-3.055,21.736-13.684,24.808
					C1180.967,1052.153,1169.86,1046.026,1166.788,1035.398z"/>
			</g>
			<g>
				<g>
					<polygon style="fill:#9DB0F4;" points="1286.649,1028.608 1261.003,1018.221 1303.564,898.671 1340.7,913.712 					"/>
				</g>
			</g>
			<g>
				<g>
					<path style="fill:#9DB0F4;" d="M1265.025,1029.975l-35.212-79l-1.211-4.41c9.157-5.471,21.015-2.483,26.485,6.674
						l38.315,64.137L1265.025,1029.975z"/>
				</g>
			</g>
			<g>
				<path style="fill:#233862;" d="M1255.726,1013.626c0-11.063,8.969-20.032,20.032-20.032c11.064,0,20.033,8.969,20.033,20.032
					c0,11.064-8.969,20.033-20.033,20.033C1264.694,1033.659,1255.726,1024.69,1255.726,1013.626z"/>
			</g>
			<g>
				<path style="fill:#FFA561;" d="M1220.592,1013.519l-0.054-0.007c-5.563-0.813-9.415-5.98-8.604-11.544l7.782-53.345
					c0.812-5.563,5.979-9.414,11.542-8.604l5.405,0.789c5.961,0.869,9.867,6.696,8.407,12.541l-13.134,52.563
					C1230.67,1010.985,1225.766,1014.273,1220.592,1013.519z"/>
			</g>
			<g>
				
					<rect x="1156.314" y="1061.902" transform="matrix(0.1759 -0.9844 0.9844 0.1759 -47.0986 2068.5615)" style="fill:#233862;" width="111.315" height="1.02"/>
			</g>
			<g>
				<g>
					<polygon style="fill:#9DB0F4;" points="1435.73,1031.049 1408.076,1031.99 1398.33,905.465 1438.373,904.101 					"/>
				</g>
			</g>
			<g>
				<g>
					<path style="fill:#9DB0F4;" d="M1415.481,1047.682l-83.177-35.043l-3.9-2.391c2.943-10.253,13.641-16.179,23.894-13.236
						l71.81,20.612L1415.481,1047.682z"/>
				</g>
			</g>
			<g>
				<path style="fill:#233862;" d="M1401.968,1028.608c0-11.063,8.969-20.032,20.033-20.032s20.033,8.969,20.033,20.032
					c0,11.064-8.969,20.033-20.033,20.033S1401.968,1039.673,1401.968,1028.608z"/>
			</g>
			<g>
				<path style="fill:#FFA561;" d="M1294.466,1047.885l-0.037-0.039c-3.92-4.031-3.829-10.476,0.202-14.396l38.648-37.581
					c4.031-3.92,10.476-3.83,14.395,0.201l3.809,3.916c4.199,4.318,3.751,11.319-0.966,15.066l-42.419,33.705
					C1304.003,1052.011,1298.111,1051.633,1294.466,1047.885z"/>
			</g>
			<g>
				
					<rect x="1238.217" y="1066.962" transform="matrix(0.7389 -0.6739 0.6739 0.7389 -386.8506 1136.7083)" style="fill:#233862;" width="69.897" height="1.021"/>
			</g>
			<g>
				<g>
					<rect x="1281.561" y="895.72" style="fill:#233862;" width="82.494" height="20.943"/>
				</g>
				<g>
					<rect x="1397.126" y="895.72" style="fill:#233862;" width="82.493" height="20.943"/>
				</g>
				<g>
					<rect x="1165.996" y="895.72" style="fill:#233862;" width="82.492" height="20.943"/>
				</g>
			</g>
		</g>
		<g>
			<rect x="1266.916" y="1425.264" style="fill:#B9CAEF;" width="221.179" height="32.304"/>
		</g>
	</g>
	<g>
		<g>
			<g>
				<path style="fill:#7C9AF2;" d="M2256.693,1294.304h-124.364V859.951h133.196c41.992,0,76.033,34.041,76.033,76.033v273.454
					C2341.559,1256.309,2303.563,1294.304,2256.693,1294.304z"/>
			</g>
			<g>
				<path style="fill:#AEC3FF;" d="M2220.08,1294.304H2103.27V779.185h126.429c45.729,0,82.801,37.071,82.801,82.801v339.898
					C2312.499,1252.926,2271.121,1294.304,2220.08,1294.304z"/>
			</g>
		</g>
		<g>
			<path style="fill:#7C9AF2;" d="M2115.466,1294.304h-116.812v-503.49c0-6.422,5.207-11.628,11.629-11.628h114.8
				c45.729,0,82.801,37.071,82.801,82.801v339.898C2207.884,1252.926,2166.507,1294.304,2115.466,1294.304z"/>
		</g>
		<g>
			<rect x="2207.884" y="895.894" style="fill:#7C9AF2;" width="83.375" height="70.578"/>
		</g>
		<g>
			<rect x="2066.516" y="1282.436" style="fill:#C9D4F8;" width="163.021" height="144.275"/>
		</g>
		<g>
			<path style="fill:#C9D4F8;" d="M2374.533,1456.487h-430.063v-22.833c0-10.146,8.227-18.373,18.373-18.373h388.91
				c12.58,0,22.779,10.198,22.779,22.779V1456.487z"/>
		</g>
		<g>
			<path style="fill:#163560;" d="M2246.058,1429.656c0,0-1.727,26.907-6.934,27.28c-0.692,0.051-26.405-0.005-26.405-0.005
				l-32.822-0.263c0,0,0.232-7.908,9.829-9.56c9.599-1.651,25.672-8.358,31.512-21.026
				C2227.381,1412.755,2246.058,1429.656,2246.058,1429.656z"/>
		</g>
		<g>
			<path style="fill:#163560;" d="M2174.496,1429.498c0,0-1.728,26.906-6.935,27.28c-0.692,0.05-26.405-0.006-26.405-0.006
				l-32.822-0.262c0,0,0.232-7.909,9.83-9.56c9.599-1.65,25.672-8.358,31.512-21.027
				C2155.818,1412.598,2174.496,1429.498,2174.496,1429.498z"/>
		</g>
		<g>
			<path style="fill:#ABDDDA;" d="M2303.272,996.203c0,0,31.919,6.729,40.227,27.075c6.703,16.414,31.882,72.715,15.983,89.355
				c-8.554,8.954-40.979-10.589-40.979-10.589L2303.272,996.203z"/>
		</g>
		<g>
			<path style="fill:#FFB27D;" d="M2303.163,997.732l-15.298,15.592l-26.843,0.814c-0.097-2.16-0.275-11.162-0.428-19.316
				c-0.007-0.483-0.014-0.964-0.023-1.434c-0.121-6.94-0.22-12.904-0.22-12.904l21.775-15.881l8.119-5.92
				c0.008,0.145,0.913,7.534,1.05,8.611C2293.701,986.435,2303.163,997.732,2303.163,997.732z"/>
		</g>
		<g>
			<path style="fill:#6BB7BF;" d="M2262.672,996.742c0.513-0.214,31.812-9.377,35.208-8.247c3.396,1.13,5.393,7.708,5.393,7.708
				l-51.188,11.455C2252.084,1007.658,2256.129,999.481,2262.672,996.742z"/>
		</g>
		<g>
			<path style="fill:#ABDDDA;" d="M2214.949,1247.645c1.976-30.667,21.729-142.636,22.019-166.208
				c0.141-11.382,1.729-23.022,3.837-33.59c4.48-22.522,11.279-40.189,11.279-40.189s43.129-13.84,51.188-11.452
				c24.267,7.186,51.382,139.283,60.632,229.845C2369.453,1280.387,2213.939,1263.342,2214.949,1247.645z"/>
		</g>
		<g>
			<path style="fill:#FCA56B;" d="M2289.56,968.019c-3.337,10.115-21.363,22.161-28.965,26.803
				c-0.007-0.483-0.014-0.964-0.023-1.434c-0.121-6.94-0.22-21.76-0.22-21.76l21.775-7.025
				C2287.437,963.371,2290.938,963.856,2289.56,968.019z"/>
		</g>
		<g>
			<rect x="2152.035" y="1220.438" style="fill:#6BB7BF;" width="121.748" height="49.023"/>
		</g>
		<g>
			<path style="fill:#6BB7BF;" d="M2113.946,1263.138c-1.02,4.231,27.469,170.02,27.469,170.02s30.686-0.141,42.418-6.446
				l-12.008-171.074L2113.946,1263.138z"/>
		</g>
		<g>
			<path style="fill:#6BB7BF;" d="M2175.907,1265.866c-1.021,4.23,27.468,170.019,27.468,170.019s30.686-0.141,42.418-6.446
				l-12.008-171.074L2175.907,1265.866z"/>
		</g>
		<g>
			<path style="fill:#FFB27D;" d="M2253.173,975.297c0,0,39.692,12.477,47.081-12.36c7.389-24.839,17.488-39.955-7.541-48.973
				c-25.03-9.016-32.796-1.01-37.279,6.682C2250.951,928.336,2243.038,971.411,2253.173,975.297z"/>
		</g>
		<g>
			<path style="fill:#163560;" d="M2256.999,918.254c0,0,2.471,28.928,8.454,27.685c5.984-1.242,11.41-2.161,10.516,6.555
				c-0.895,8.716-2.422,21.125,16.008,22.707c18.43,1.582,38.242-48.256,33.198-57.269
				C2310.62,891.931,2235.95,886.527,2256.999,918.254z"/>
		</g>
		<g>
			<g>
				<g>
					<path style="fill:#7291D6;" d="M2221.14,1459.454l-0.298-0.005c-2.433-0.045-4.311-2.034-4.082-4.322l16.229-162.088
						l14.163,1.265l-23.306,162.959C2223.665,1458.537,2222.501,1459.479,2221.14,1459.454z"/>
				</g>
			</g>
			<g>
				<g>
					<path style="fill:#7291D6;" d="M2377.418,1459.454l0.299-0.005c2.432-0.045,4.311-2.034,4.082-4.322l-16.23-162.088
						l-14.162,1.265l23.305,162.959C2374.894,1458.537,2376.059,1459.479,2377.418,1459.454z"/>
				</g>
			</g>
			<g>
				<g>
					<path style="fill:#7291D6;" d="M2106.641,1459.454l-0.299-0.005c-2.432-0.045-4.311-2.034-4.082-4.322l16.229-162.088
						l14.162,1.265l-23.304,162.959C2109.165,1458.537,2108,1459.479,2106.641,1459.454z"/>
				</g>
			</g>
			<g>
				<path style="fill:#7291D6;" d="M2372.586,1269.462l28.809-142.268c3.697-19.263-12.264-36.876-32.988-36.402l-55.561,1.269
					c-19.167,0.438-35.831,13.266-41.159,31.683l-42.149,145.719H2372.586z"/>
			</g>
			<g>
				<path style="fill:#7291D6;" d="M2355.156,1269.462l28.809-142.268c3.697-19.263-12.264-36.876-32.987-36.402l-55.562,1.269
					c-19.166,0.438-35.831,13.266-41.158,31.683l-42.149,145.719H2355.156z"/>
			</g>
			<g>
				<path style="fill:#7291D6;" d="M2364.556,1295.409h-219.82c-4.417,0-8.029-3.613-8.029-8.03v-9.887
					c0-4.417,3.612-8.03,8.029-8.03h227.851v17.917C2372.586,1291.796,2368.971,1295.409,2364.556,1295.409z"/>
			</g>
			<g>
				<path style="fill:#7291D6;" d="M2261.399,1295.409h-140.129c-3.558,0-6.469-2.911-6.469-6.469v-13.01
					c0-3.558,2.911-6.469,6.469-6.469h140.129c3.558,0,6.469,2.911,6.469,6.469v13.01
					C2267.868,1292.498,2264.957,1295.409,2261.399,1295.409z"/>
			</g>
		</g>
		<g>
			<path style="fill:#ABDDDA;" d="M2252.084,1007.657c0,0-24.381,4.653-33.563,24.038c-9.182,19.385-28.056,85.117-28.056,85.117
				l40.045,38.842l17.731-90.403L2252.084,1007.657z"/>
		</g>
		<g>
			<g>
				<path style="fill:#1C468A;" d="M2137.526,1316.34h-126.28V859.951h135.443c43.563,0,78.881,35.315,78.881,78.881v289.465
					C2225.57,1276.922,2186.15,1316.34,2137.526,1316.34z"/>
			</g>
			<g>
				<path style="fill:#9DB0F4;" d="M2124.934,1316.34h-126.279V859.951h135.442c43.563,0,78.881,35.315,78.881,78.881v289.465
					C2212.978,1276.922,2173.559,1316.34,2124.934,1316.34z"/>
			</g>
		</g>
	</g>
	<g>
		<g>
			<g>
				<g>
					<path style="fill:#C8DBF4;" d="M736.063,1191.271c0,0-12.029-14.034-0.741-22.948c0,0,8.244-4.992,14.969-4.587
						c0,0-9.527,15.975-6.446,17.563c3.083,1.59,9.333-18.565,9.333-18.565s18.763-1.819,24.798,1.083
						c0,0-16.039,13.126-12.661,13.907c3.378,0.781,20.703-12.103,20.703-12.103s17.463,2.972,16.531,13.625
						c-0.931,10.653-6.947,13.942-9.593,13.66c-2.644-0.284-18.115-6.189-18.452-4.022c-0.337,2.167,8.977,9.248,15.498,9.58
						c0,0-12.313,13.578-20.496,9.659c-8.182-3.918-8.88-10.13-13.982-12.46c-5.1-2.329-9.454-2.324-7.348,0.052
						c2.104,2.377,11.336,4.686,14.254,9.846c2.916,5.159,5.534,8.639-2.932,7.365c-8.467-1.274-22.227-7.469-22.831-14.563
						C736.063,1191.271,736.063,1191.271,736.063,1191.271z"/>
				</g>
				<g>
					<g>
						<path style="fill:#C8DBF4;" d="M793.969,1179.533c0,0-47.43-1.827-57.905,11.737c0,0-2.316,6.938-9.445,13.256l-1.11,3.027
							c0,0,8.219-8.665,11.16-9.19C736.668,1198.363,732.068,1181.559,793.969,1179.533z"/>
					</g>
					<g>
						<path style="fill:#C8DBF4;" d="M726.618,1204.526c0,0-10.18,7.528-10.887,20.981l1.847,0.166c0,0,3.253-13.911,9.129-19.351
							C732.584,1200.884,726.618,1204.526,726.618,1204.526z"/>
					</g>
				</g>
			</g>
			<g>
				<g>
					<path style="fill:#C8DBF4;" d="M694.004,1173.621c0,0,19.137-10.716,10.206-25.26c0,0-7.145-8.93-14.799-11.227
						c0,0,4.083,21.688,0,22.198c-4.082,0.511-2.807-24.494-2.807-24.494s-20.156-9.696-28.066-8.931
						c0,0,12.503,21.178,8.421,20.667c-4.083-0.511-18.115-21.941-18.115-21.941s-20.667-3.827-23.984,8.419
						c-3.316,12.247,2.042,18.37,5.104,19.136c3.061,0.766,22.707,0.511,22.196,3.062c-0.509,2.552-13.776,6.635-21.176,4.338
						c0,0,8.165,20.156,18.881,19.136c10.716-1.021,14.032-7.654,20.667-8.165c6.634-0.51,11.481,1.276,8.165,3.063
						c-3.317,1.786-14.544,0.586-19.902,5.141s-9.695,7.361,0.255,9.403c9.951,2.04,27.812,0.765,31.384-6.89
						C694.004,1173.621,694.004,1173.621,694.004,1173.621z"/>
				</g>
				<g>
					<g>
						<path style="fill:#C8DBF4;" d="M634.301,1136.88c0,0,53.58,17.35,59.703,36.741c0,0-0.255,8.675,5.102,18.625v3.828
							c0,0-5.612-13.013-8.674-14.799C690.433,1181.275,702.424,1164.437,634.301,1136.88z"/>
					</g>
					<g>
						<path style="fill:#C8DBF4;" d="M699.106,1192.246c0,0,8.264,12.549,3.553,27.823l-2.126-0.571c0,0,2.063-16.823-2.259-25.285
							C693.951,1185.752,699.106,1192.246,699.106,1192.246z"/>
					</g>
				</g>
			</g>
			<g>
				<g>
					<path style="fill:#D4E4F8;" d="M724.448,1158.843c0,0-25.225-14.126-13.453-33.298c0,0,9.417-11.771,19.507-14.798
						c0,0-5.381,28.588,0,29.261c5.381,0.673,3.699-32.288,3.699-32.288s26.57-12.78,36.997-11.771c0,0-16.48,27.915-11.1,27.242
						c5.382-0.672,23.88-28.924,23.88-28.924s27.242-5.045,31.615,11.099c4.372,16.145-2.691,24.216-6.727,25.225
						c-4.036,1.01-29.934,0.673-29.261,4.036c0.672,3.364,18.161,8.745,27.915,5.718c0,0-10.762,26.57-24.889,25.225
						c-14.126-1.346-18.497-10.09-27.243-10.763c-8.744-0.672-15.135,1.682-10.762,4.037c4.372,2.354,19.171,0.771,26.233,6.775
						c7.064,6.005,12.781,9.704-0.336,12.396c-13.117,2.689-36.66,1.009-41.369-9.082
						C724.448,1158.843,724.448,1158.843,724.448,1158.843z"/>
				</g>
				<g>
					<g>
						<path style="fill:#D4E4F8;" d="M803.149,1110.41c0,0-70.63,22.871-78.701,48.433c0,0,0.336,11.435-6.727,24.552v5.044
							c0,0,7.399-17.152,11.435-19.507C729.156,1168.932,713.349,1146.734,803.149,1110.41z"/>
					</g>
					<g>
						<path style="fill:#D4E4F8;" d="M717.722,1183.395c0,0-10.893,16.54-4.683,36.675l2.802-0.753c0,0-2.721-22.177,2.979-33.33
							C724.518,1174.832,717.722,1183.395,717.722,1183.395z"/>
					</g>
				</g>
			</g>
			<g>
				<path style="fill:#D4E4F8;" d="M723.598,1263.73c27.289,0,49.412-22.122,49.412-49.411h-98.823
					C674.186,1241.608,696.309,1263.73,723.598,1263.73z"/>
			</g>
			<g>
				<path style="fill:#D4E4F8;" d="M773.691,1266.245H673.505l0,0c0-3.367,2.729-6.097,6.096-6.097h87.996
					C770.962,1260.148,773.691,1262.878,773.691,1266.245L773.691,1266.245z"/>
			</g>
			<g>
				<rect x="672.563" y="1214.319" style="fill:#9FC1F4;" width="101.57" height="1.516"/>
			</g>
		</g>
		<g>
			<g>
				<path style="fill:#9ABFE2;" d="M809.392,1269.683v4.812c0,1.685-0.545,3.06-1.21,3.06H632.605c-0.666,0-1.211-1.375-1.211-3.06
					v-4.812c0-1.682,0.545-3.06,1.211-3.06h175.576C808.847,1266.623,809.392,1268.001,809.392,1269.683z"/>
			</g>
			<g>
				<path style="fill:#BAD4F4;" d="M809.392,1269.683v4.812c0,1.685-0.5,3.06-1.11,3.06H668.893c-0.611,0-1.111-1.375-1.111-3.06
					v-4.812c0-1.682,0.5-3.06,1.111-3.06h139.389C808.892,1266.623,809.392,1268.001,809.392,1269.683z"/>
			</g>
			<g>
				<rect x="640.306" y="1277.556" style="fill:#C8DBF4;" width="124.648" height="181.681"/>
			</g>
			<g>
				<rect x="675.237" y="1277.556" style="fill:#DFEBFD;" width="124.647" height="181.681"/>
			</g>
			<g>
				<g>
					<g>
						<path style="fill:#B7D3F3;" d="M793.188,1449.206H681.935v-166.519h111.253V1449.206z M683.138,1448.005h108.85v-164.116
							h-108.85V1448.005z"/>
					</g>
				</g>
				<g>
					<g>
						<rect x="682.537" y="1337.773" style="fill:#B7D3F3;" width="110.05" height="1.201"/>
					</g>
				</g>
				<g>
					<g>
						<rect x="682.537" y="1393.932" style="fill:#B7D3F3;" width="110.05" height="1.201"/>
					</g>
				</g>
				<g>
					<path style="fill:#B7D3F3;" d="M748.839,1293.427h-20.422c-0.99,0-1.801-0.811-1.801-1.802l0,0c0-0.99,0.811-1.802,1.801-1.802
						h20.422c0.991,0,1.802,0.812,1.802,1.802l0,0C750.641,1292.616,749.83,1293.427,748.839,1293.427z"/>
				</g>
				<g>
					<path style="fill:#B7D3F3;" d="M748.839,1348.345h-20.422c-0.99,0-1.801-0.812-1.801-1.803l0,0
						c0-0.991,0.811-1.801,1.801-1.801h20.422c0.991,0,1.802,0.81,1.802,1.801l0,0
						C750.641,1347.533,749.83,1348.345,748.839,1348.345z"/>
				</g>
				<g>
					<path style="fill:#B7D3F3;" d="M748.839,1405.592h-20.422c-0.99,0-1.801-0.811-1.801-1.802l0,0
						c0-0.991,0.811-1.802,1.801-1.802h20.422c0.991,0,1.802,0.811,1.802,1.802l0,0
						C750.641,1404.781,749.83,1405.592,748.839,1405.592z"/>
				</g>
			</g>
		</g>
		<g>
			<g>
				<g>
					<g>
						<g>
							<path style="fill:#9DB0F4;" d="M421.183,1460.173l0.298-0.005c2.433-0.045,4.311-2.033,4.082-4.321l-16.229-162.089
								l-14.162,1.265l23.305,162.959C418.658,1459.256,419.822,1460.198,421.183,1460.173z"/>
						</g>
					</g>
					<g>
						<g>
							<path style="fill:#9DB0F4;" d="M286.112,1460.173l-0.298-0.005c-2.433-0.045-4.311-2.033-4.083-4.321l16.23-162.089
								l14.163,1.265l-23.305,162.959C288.637,1459.256,287.473,1460.198,286.112,1460.173z"/>
						</g>
					</g>
					<g>
						<path style="fill:#9DB0F4;" d="M290.945,1270.181l-28.809-142.268c-3.698-19.263,12.264-36.876,32.988-36.402l55.561,1.269
							c19.167,0.438,35.832,13.266,41.159,31.684l42.149,145.718H290.945z"/>
					</g>
					<g>
						<path style="fill:#9DB0F4;" d="M308.374,1270.181l-28.809-142.268c-3.697-19.263,12.264-36.876,32.988-36.402l55.561,1.269
							c19.167,0.438,35.831,13.266,41.158,31.684l42.149,145.718H308.374z"/>
					</g>
					<g>
						<path style="fill:#9DB0F4;" d="M298.975,1296.128h219.82c4.416,0,8.029-3.613,8.029-8.029v-9.888
							c0-4.417-3.613-8.03-8.029-8.03h-227.85v17.918C290.945,1292.515,294.559,1296.128,298.975,1296.128z"/>
					</g>
					<g>
						<path style="fill:#9DB0F4;" d="M402.13,1296.128h140.131c3.558,0,6.469-2.911,6.469-6.469v-13.01
							c0-3.558-2.911-6.469-6.469-6.469H402.13c-3.557,0-6.468,2.911-6.468,6.469v13.01
							C395.662,1293.217,398.573,1296.128,402.13,1296.128z"/>
					</g>
				</g>
				<g>
					<g>
						<g>
							<g>
								<path style="fill:#ABDDDA;" d="M401.116,1124.012l23.35,59.083c0,0,22.498,26.514,40.58,17.968l-57.219-111.109
									L401.116,1124.012z"/>
							</g>
							<g>
								<path style="fill:#FFB27D;" d="M564.294,1447.517c-0.187,6.561,8.993,7.57,19.543,7.426
									c10.552-0.144,7.509,2.212,22.087,3.907c14.578,1.695,20.104-2.615,21.023-4.63c0.819-1.786-6.054-4.063-13.388-6.663
									c-0.923-0.324-1.848-0.66-2.773-0.997c-8.261-3.022-13.229-9.944-19.918-16.229c-6.338-5.953-13.259-25.862-13.259-25.862
									l-19.852-2.938c0,0,6.658,17.892,9.061,25.558c1.415,4.509,0.083,9.734-1.141,13.726
									C565.021,1442.984,564.357,1445.205,564.294,1447.517z"/>
							</g>
							<g>
								<path style="fill:#0F2549;" d="M583.837,1454.942c10.552-0.144,7.509,2.212,22.087,3.907
									c14.578,1.695,20.104-2.615,21.023-4.63c0.819-1.786-6.054-4.063-13.388-6.663l-0.104,0.129c0,0-9.916,4.084-21.814,1.646
									c-9.698-1.983-19.279-7.096-25.964-8.52c-0.657,2.172-1.32,4.393-1.384,6.704
									C564.107,1454.077,573.287,1455.087,583.837,1454.942z"/>
							</g>
							<g>
								<path style="fill:#5DABAF;" d="M530.104,1221.797c-10.535-7.397-95.968-29.431-104.802-41.914l-50.294-16.607
									c0,0-33.459,49.557-33.724,87.469c-0.124,17.677,8.018,19.433,8.02,19.437c0,0,126.01,0.935,131.534,1.505
									c9.041,0.933,20.967,23.455,23.948,43.971c2.982,20.515,55.527,103.95,55.527,103.95s10.957,3.512,16.025,3.215
									c5.449-0.32,7.973-2.146,7.973-2.146S553.863,1238.48,530.104,1221.797z"/>
							</g>
							<g>
								<path style="fill:#FFB27D;" d="M531.373,1451.82c0.07,6.563,9.283,7.212,19.819,6.654
									c10.536-0.557,7.589,1.916,22.223,3.039c14.633,1.122,19.985-3.401,20.826-5.45c0.748-1.816-6.208-3.823-13.64-6.134
									c-0.936-0.287-1.871-0.588-2.81-0.887c-8.373-2.697-13.607-9.419-20.539-15.437c-6.565-5.701-14.263-25.323-14.263-25.323
									l-19.95-2.158c0,0,7.353,17.616,10.055,25.182c1.59,4.45,0.464,9.725-0.602,13.761
									C531.92,1447.263,531.345,1449.509,531.373,1451.82z"/>
							</g>
							<g>
								<path style="fill:#233862;" d="M551.192,1458.475c10.536-0.557,7.589,1.916,22.223,3.039
									c14.633,1.122,19.985-3.401,20.826-5.45c0.748-1.816-6.208-3.823-13.64-6.134l-0.098,0.133c0,0-9.748,4.47-21.733,2.501
									c-9.768-1.603-19.543-6.335-26.277-7.496c-0.573,2.195-1.148,4.441-1.12,6.753
									C531.443,1458.383,540.656,1459.032,551.192,1458.475z"/>
							</g>
							<g>
								<path style="fill:#6BB7BF;" d="M497.223,1221.797c-9.148-6.424-31.859-10.844-66.701-15.896
									c-26.3-3.814-38.046-21.933-40.102-30.158l15.31-7.068l-63.602-5.398c0,0-16.093,31.194-16.358,69.105
									c-0.124,17.678,15.513,37.796,15.515,37.8c0,0,101.15,0.935,106.673,1.505c9.042,0.933,20.968,23.455,23.948,43.971
									c2.98,20.515,55.526,103.95,55.526,103.95s10.958,3.512,16.026,3.215c5.449-0.32,7.973-2.146,7.973-2.146
									S520.98,1238.48,497.223,1221.797z"/>
							</g>
							<g>
								<path style="fill:#233862;" d="M402.646,957.375c-9.713-5.101-24.491-5.79-26.892-6.113
									c-28.73-3.86-46.022,37.888-47.039,50.537c-1.875,23.316-14.209,26.872-31.571,41.474
									c-34.812,29.279-24.604,63.303-5.568,75.944c11.421,7.585,31.553-0.001,31.553-0.001
									c0.284,0.198,55.056-30.618,82.055-45.484C445.658,1067.979,427.396,970.372,402.646,957.375z"/>
							</g>
							<g>
								<path style="fill:#FFB27D;" d="M396.654,1059.37c0.126,0.063-12.766,5.927-22.072,2.853
									c-8.755-2.884-16.466-16.064-16.343-16.085c3.8-0.551,7.663-4.299,8.741-26.512l1.683,0.423l28.293,7.152
									c0,0-1.12,8.962-1.581,17.437C394.984,1051.753,395.064,1058.524,396.654,1059.37z"/>
							</g>
							<g>
								<path style="fill:#ED975D;" d="M396.956,1027.201c0,0,0,1.844-1.058,10.183c-16.001-4.036-23.057-9.342-28.032-15.415
									L396.956,1027.201z"/>
							</g>
							<g>
								<path style="fill:#FFB27D;" d="M402.991,1028.329c0,0-37.414,6.092-40.848-17.267
									c-3.435-23.357-10.577-38.302,13.165-43.179c23.742-4.876,29.704,3.353,32.747,10.87
									C411.099,986.271,412.635,1026.143,402.991,1028.329z"/>
							</g>
							<g>
								<path style="fill:#233862;" d="M403.027,966.905c0,0-16.99,26.819-32.158,33.172c-15.168,6.352-22.619,3.127-22.619,3.127
									s6.9-10.462,8.698-24.511c0.53-4.141,3.228-7.691,7.103-9.243C374.936,965.091,395.99,958.217,403.027,966.905z"/>
							</g>
							<g>
								<path style="fill:#233862;" d="M388.102,969.498c0,0,9.959,5.106,14.06,9.891c3.958,4.617,8.529,17.147,8.203,22.773
									c0,0,4.912-26.966-5.32-36.234C394.195,956.099,388.102,969.498,388.102,969.498z"/>
							</g>
							<g>
								<path style="fill:#FFB27D;" d="M426.585,1116.433c-1.136,76.048,26.892,54.764,18.573,61.979
									c-2.004,1.736-13.102-1.039-44.042,0.499c-23.342,1.159-62.529,5.864-64.088,1.554c-5.378-14.911-1.582-19.543-6.069-42.373
									c-0.468-2.428-1.047-5.055-1.726-7.918c-3.742-15.68-7.383-21.014,5.891-46.203c12.038-22.818,26.195-41.354,27.319-40.687
									c31.761,18.854,32.848,3.05,32.848,3.05S427.142,1079.338,426.585,1116.433z"/>
							</g>
							<g>
								<path style="fill:#233862;" d="M364.036,1069.104c0,0,14.697,12.444,41.147,4.628
									c26.45-7.817,27.956,109.079,27.956,109.079s-22.048,6.547-54.035,3.213
									C347.118,1182.689,364.036,1069.104,364.036,1069.104z"/>
							</g>
							<g>
								<path style="fill:#ABDDDA;" d="M395.291,1046.334c0,0,32.506,5.51,36.343,19.58c3.837,14.071,50.754,138.611,50.754,138.611
									s-47.87-13.854-57.085-24.643c-7.048-8.254-18.242-93.075-18.242-93.075L395.291,1046.334z"/>
							</g>
							<g>
								<path style="fill:#FFB27D;" d="M404.012,1175.558c0,0,4.821,6.219,6.401,6.96c1.58,0.742,2.601,0.558,2.601,0.558
									l-3.248-5.847L404.012,1175.558z"/>
							</g>
							<g>
								<path style="fill:#FFB27D;" d="M402.898,1169.154l14.015,6.806c0,0-0.596,0.976-2.321,0.897
									c-1.727-0.079-6.079-1.671-6.079-1.671L402.898,1169.154z"/>
							</g>
							<g>
								<path style="fill:#6BB7BF;" d="M395.582,1041.37l-0.291,4.964c3.693,12.703,10.294,52.498,18.074,82.867l5.088-44.028
									l-4.474-3.654l1.678-6.151L401,1047.552L395.582,1041.37z"/>
							</g>
							<g>
								<path style="fill:#ABDDDA;" d="M370.915,1256.486c-32.966,8.932-65.484-0.843-65.484-0.843l8.196-48.472l4.471-26.425
									l9.589-56.735l16.384-53.958l14.329-8.675l12.516,62.633V1256.486z"/>
							</g>
							<g>
								<path style="fill:#6BB7BF;" d="M334.831,1129.902c-0.839,1.322-0.875,27.094,23.407,33.397s-35.56,12.442-35.56,12.442
									s-19.295-14.808-19.015-18.442C303.943,1153.664,334.831,1129.902,334.831,1129.902z"/>
							</g>
							<g>
								<path style="fill:#6BB7BF;" d="M379.103,1186.023c0,0-33.271,19.044-65.476,21.148l4.471-26.425L379.103,1186.023z"/>
							</g>
							<g>
								<path style="fill:#FFB27D;" d="M376.181,1172.235c0,0,23.006-5.122,26.718-3.081c3.712,2.042,12.784,9.478,13.92,12.064
									c1.136,2.588-8.264-1.964-11.321-2.784c-1.98-0.531-7.192,1.28-9.773,2.14c-10.857,3.62-17.511,1.758-17.511,1.758
									L376.181,1172.235z"/>
							</g>
							<g>
								<path style="fill:#ABDDDA;" d="M362.443,1043.284c0,0-32.561,1.903-43.254,16.818
									c-15.054,20.994-44.916,110.472-27.801,122.405c19.272,13.439,87.716,3.516,87.716,3.516s2.278-10.646-0.891-15.795
									c-3.169-5.15-54.667-13.47-57.043-15.846c-2.377-2.377,29.711-46.348,29.711-53.479
									C350.88,1093.774,362.443,1043.284,362.443,1043.284z"/>
							</g>
							<g>
								<path style="fill:#6BB7BF;" d="M364.318,1039.103l6.597,84.909l-15.1-32.51l2.587-5.789c0,0-5.523-9.507-5.523-10.626
									c0-1.118,1.571-30.889,1.571-30.889L364.318,1039.103z"/>
							</g>
						</g>
					</g>
				</g>
			</g>
			<g>
				<g>
					<path style="fill:#2B478B;" d="M365.954,1198.646h339.987c1.63,0,2.953-1.321,2.953-2.952v-10.044
						c0-1.631-1.323-2.953-2.953-2.953H365.954c-1.629,0-2.951,1.322-2.951,2.953v10.044
						C363.003,1197.325,364.325,1198.646,365.954,1198.646z"/>
				</g>
				<g>
					<g>
						<path style="fill:#2B478B;" d="M700.158,1461.359l0.188-0.023c2.26-0.279,3.859-2.296,3.573-4.503l-39.299-266.021
							l-14.388,0.412l46.239,267.459C696.769,1460.396,698.394,1461.576,700.158,1461.359z"/>
					</g>
				</g>
				<g>
					<g>
						<path style="fill:#2B478B;" d="M351.593,1461.359l-0.188-0.023c-2.259-0.279-3.859-2.296-3.574-4.503l39.3-266.021
							l14.388,0.412l-46.239,267.459C354.982,1460.396,353.356,1461.576,351.593,1461.359z"/>
					</g>
				</g>
				<g>
					<g>
						<path style="fill:#2B478B;" d="M442.572,1461.359l-0.189-0.023c-2.259-0.279-3.859-2.296-3.574-4.503l39.3-266.021
							l14.387,0.412l-46.238,267.459C445.962,1460.396,444.336,1461.576,442.572,1461.359z"/>
					</g>
				</g>
			</g>
			<g>
				<g>
					<polygon style="fill:#2D466D;" points="560.959,1160.898 428.972,1160.898 452.953,1072.202 584.94,1072.202 					"/>
				</g>
				<g>
					<polygon style="fill:#233862;" points="565.127,1160.898 433.14,1160.898 457.121,1072.202 589.108,1072.202 					"/>
				</g>
				<g>
					<polygon style="fill:#2D466D;" points="508.906,1182.414 481.231,1182.666 500.391,1124.266 528.065,1124.012 					"/>
				</g>
				<g>
					<rect x="464.141" y="1179.883" style="fill:#2D466D;" width="60.441" height="2.783"/>
				</g>
			</g>
		</g>
	</g>
	<g>
		<g>
			<g>
				<g>
					<polygon style="fill:#2B478B;" points="1021.428,1008.352 827.938,1008.352 847.61,864.115 1041.101,864.115 					"/>
				</g>
				<g>
					<polygon style="fill:#C9D4F8;" points="1017.019,1004.16 833.488,1004.16 851.98,868.584 1035.512,868.584 					"/>
				</g>
				<g>
					<path style="fill:#FFFFFF;" d="M943.119,920.28c-0.032,0-0.063-0.002-0.094-0.004c-0.565-0.045-0.963-0.487-0.949-1.057
						l0.635-26.551l-9.305,26.665c-0.192,0.552-0.732,0.946-1.295,0.946h-10.584c-0.453,0-0.832-0.255-0.977-0.659l-2.036-5.598
						l-3.902,5.643c-0.263,0.379-0.693,0.614-1.128,0.614h-6.35c-0.506,0-0.914-0.319-1.017-0.796l-4.054-18.718l-10.671,18.793
						c-0.247,0.437-0.718,0.721-1.193,0.721h-30.48c-0.66,0-1.121-0.534-1.031-1.193c0.09-0.659,0.696-1.193,1.356-1.193h29.696
						l11.849-20.87c0.256-0.451,0.758-0.729,1.234-0.721c0.489,0.018,0.876,0.332,0.977,0.796l4.503,20.795h4.805l4.847-7.007
						c0.268-0.387,0.739-0.638,1.153-0.613c0.441,0.009,0.808,0.264,0.952,0.659l2.53,6.961h8.88l11.486-32.923
						c0.199-0.572,0.762-0.982,1.353-0.944c0.581,0.029,0.997,0.477,0.983,1.059l-0.661,27.707l4.507-10.956
						c0.219-0.533,0.743-0.891,1.313-0.877c0.551,0.021,0.964,0.416,0.998,0.958l1.015,15.976h12.554l13.992-30.084
						c0.242-0.52,0.801-0.863,1.329-0.818c0.54,0.04,0.934,0.444,0.957,0.982l1.248,29.921h3.754l6.644-10.756
						c0.279-0.451,0.78-0.721,1.283-0.668c0.492,0.048,0.858,0.402,0.918,0.888l1.295,10.536h17.279
						c0.659,0,1.121,0.534,1.031,1.193c-0.09,0.659-0.697,1.193-1.356,1.193h-18.204c-0.544,0-0.969-0.367-1.033-0.894l-1.017-8.277
						l-5.249,8.495c-0.255,0.413-0.709,0.676-1.168,0.676h-5.503c-0.578,0-1.018-0.415-1.041-0.984l-1.095-26.243l-12.282,26.406
						c-0.228,0.49-0.73,0.821-1.246,0.821H951.16c-0.568,0-1.003-0.402-1.039-0.96l-0.763-11.999l-4.972,12.082
						C944.174,919.925,943.65,920.28,943.119,920.28z"/>
				</g>
				<g>
					<path style="fill:#FFFFFF;" d="M935.711,974.588c-0.031,0-0.063-0.001-0.094-0.003c-0.563-0.045-0.962-0.488-0.948-1.057
						l0.634-26.552L926,973.643c-0.192,0.551-0.733,0.945-1.297,0.945h-10.584c-0.452,0-0.83-0.255-0.977-0.659l-2.034-5.597
						l-3.904,5.643c-0.262,0.378-0.693,0.613-1.127,0.613h-6.351c-0.506,0-0.913-0.318-1.017-0.797l-4.053-18.716l-10.671,18.792
						c-0.248,0.438-0.717,0.721-1.193,0.721H852.31c-0.658,0-1.12-0.534-1.03-1.193c0.09-0.659,0.697-1.193,1.356-1.193h29.695
						l11.85-20.87c0.256-0.45,0.758-0.729,1.234-0.72c0.489,0.017,0.876,0.333,0.977,0.795l4.503,20.795h4.804l4.848-7.006
						c0.268-0.387,0.74-0.639,1.153-0.614c0.441,0.009,0.807,0.264,0.951,0.66l2.531,6.96h8.88l11.486-32.923
						c0.199-0.572,0.762-0.982,1.354-0.943c0.58,0.028,0.997,0.477,0.982,1.059l-0.662,27.708l4.508-10.957
						c0.22-0.533,0.743-0.891,1.312-0.876c0.551,0.019,0.964,0.415,0.997,0.958l1.018,15.975h12.551l13.994-30.083
						c0.242-0.521,0.802-0.864,1.329-0.818c0.54,0.039,0.936,0.443,0.957,0.982l1.248,29.92h3.754l6.645-10.754
						c0.279-0.452,0.779-0.721,1.283-0.671c0.492,0.05,0.858,0.403,0.918,0.889l1.294,10.536h17.28c0.659,0,1.121,0.534,1.031,1.193
						c-0.09,0.659-0.697,1.193-1.355,1.193h-18.205c-0.544,0-0.968-0.367-1.033-0.894l-1.017-8.277l-5.249,8.495
						c-0.255,0.414-0.709,0.676-1.168,0.676h-5.504c-0.577,0-1.017-0.415-1.04-0.983l-1.095-26.243l-12.283,26.406
						c-0.227,0.489-0.73,0.82-1.245,0.82h-14.395c-0.567,0-1.004-0.401-1.038-0.959l-0.764-12l-4.971,12.082
						C936.767,974.232,936.244,974.588,935.711,974.588z"/>
				</g>
			</g>
			<g style="opacity:0.2;">
				<polygon style="fill:#8EADFF;" points="1000.779,1083.709 1000.779,1008.352 851.269,1008.352 851.269,1083.709 
					851.269,1247.35 851.269,1461.825 1071.122,1461.825 1071.122,1083.709 				"/>
			</g>
		</g>
		<g style="opacity:0.2;">
			<polygon style="fill:#8EADFF;" points="883.139,1008.352 883.139,1103.243 956.426,1201.492 956.426,1460.7 851.269,1460.7 
				851.269,1008.352 			"/>
		</g>
		<g>
			<g>
				<path style="fill:#D2E0FF;" d="M1202.366,1222.642H991.85l-92.215-132.276c-5.921-8.494-5.233-22.637,1.453-29.843l4.683-5.046
					l186.566,4.015L1202.366,1222.642z"/>
			</g>
			<g>
				<path style="fill:#8FADEF;" d="M1037.215,1226.094l-25.205,18.743l-115.321-155.081c-6.381-8.581-4.598-20.71,3.983-27.09
					l9.668-7.189L1037.215,1226.094z"/>
			</g>
			<g>
				<path style="fill:#8FADEF;" d="M901.79,1244.837h749.93c9.199,0,16.655-7.457,16.655-16.655l0,0
					c0-9.197-7.456-16.654-16.655-16.654H901.79c-9.198,0-16.655,7.457-16.655,16.654l0,0
					C885.135,1237.38,892.592,1244.837,901.79,1244.837z"/>
			</g>
			<g>
				<rect x="1012.01" y="1207.611" style="fill:#8FADEF;" width="11.984" height="240.623"/>
			</g>
			<g>
				<rect x="1626.201" y="1207.611" style="fill:#8FADEF;" width="11.984" height="240.623"/>
			</g>
			<g>
				<rect x="1223.327" y="1207.611" style="fill:#8FADEF;" width="11.985" height="240.623"/>
			</g>
			<g>
				<rect x="1012.01" y="1393.313" style="fill:#8FADEF;" width="554.314" height="12.684"/>
			</g>
			<g>
				<rect x="1554.339" y="1393.313" style="fill:#8FADEF;" width="265.681" height="12.684"/>
			</g>
			<g>
				<g>
					<path style="fill:#2B478B;" d="M1004.412,1448.234c0-7.506,6.084-13.591,13.59-13.591c7.506,0,13.591,6.085,13.591,13.591
						c0,7.507-6.085,13.591-13.591,13.591C1010.496,1461.825,1004.412,1455.741,1004.412,1448.234z"/>
				</g>
				<g>
					<path style="fill:#AEC3FF;" d="M1010.424,1448.234c0-4.185,3.393-7.577,7.578-7.577c4.185,0,7.578,3.393,7.578,7.577
						c0,4.186-3.393,7.578-7.578,7.578C1013.816,1455.813,1010.424,1452.42,1010.424,1448.234z"/>
				</g>
			</g>
			<g>
				<g>
					<path style="fill:#2B478B;" d="M1215.728,1448.234c0-7.506,6.085-13.591,13.592-13.591c7.506,0,13.591,6.085,13.591,13.591
						c0,7.507-6.085,13.591-13.591,13.591C1221.813,1461.825,1215.728,1455.741,1215.728,1448.234z"/>
				</g>
				<g>
					<path style="fill:#AEC3FF;" d="M1221.741,1448.234c0-4.185,3.394-7.577,7.578-7.577s7.577,3.393,7.577,7.577
						c0,4.186-3.393,7.578-7.577,7.578S1221.741,1452.42,1221.741,1448.234z"/>
				</g>
			</g>
			<g>
				<g>
					<path style="fill:#2B478B;" d="M1618.603,1448.234c0-7.506,6.085-13.591,13.591-13.591s13.592,6.085,13.592,13.591
						c0,7.507-6.086,13.591-13.592,13.591S1618.603,1455.741,1618.603,1448.234z"/>
				</g>
				<g>
					<path style="fill:#AEC3FF;" d="M1624.616,1448.234c0-4.185,3.392-7.577,7.577-7.577c4.185,0,7.578,3.393,7.578,7.577
						c0,4.186-3.394,7.578-7.578,7.578C1628.008,1455.813,1624.616,1452.42,1624.616,1448.234z"/>
				</g>
			</g>
			<g>
				<path style="fill:#FFB27D;" d="M1084.203,1111.698c0,0,26.452-19.761,67.831-9.558c20.185,4.977,124.721,30.043,124.721,30.043
					l-41.442,68.587c0,0-174.238,5.119-184.742-11.904C1034.132,1162.225,1084.203,1111.698,1084.203,1111.698z"/>
			</g>
			<g>
				<path style="fill:#E8945B;" d="M1102.958,1169.555c0,0,40.857-0.527,52.193,2.59c11.338,3.118,2.552,11.338,1.702,11.621
					C1156.002,1184.049,1102.958,1169.555,1102.958,1169.555z"/>
			</g>
			<g>
				<polygon style="fill:#8FADEF;" points="912.55,1081.503 912.55,1218.811 929.376,1218.811 929.376,1100.304 				"/>
			</g>
			<g>
				<g>
					<path style="fill:#FFB27D;" d="M1063.971,1142.092c0,0-9.54-27.984-33.727-28.114l25.185-16.604l7.691-5.067
						c0,0,4.218,3.77,9.285,8.236c6.773,5.975,15.061,13.201,16.789,14.335C1092.216,1116.867,1069.509,1140.022,1063.971,1142.092z
						"/>
				</g>
				<g>
					<path style="fill:#E8945B;" d="M1072.405,1100.543c-7.481,10.991-29.34,13.639-29.34,13.639l12.363-16.808l7.691-5.067
						C1063.12,1092.307,1067.338,1096.076,1072.405,1100.543z"/>
				</g>
				<g>
					<g>
						<path style="fill:#FFB27D;" d="M1073.346,1086.804c0,0-16.515,36.783-39.264,26.146s-40.201-13.053-30.619-36.988
							c9.583-23.935,20.382-24.406,28.838-22.703C1040.757,1054.963,1077.055,1076.961,1073.346,1086.804z"/>
					</g>
					<g>
						<path style="fill:#2C3A64;" d="M1032.784,1103.342c0,0-7.368,1.444-8.483-2.949c-1.116-4.393,4.123-3.023,5.319-5.112
							c1.195-2.088-2.276-9.584-7.432-13.395c-5.153-3.811,15.769-17.64,18.375-27.054c2.605-9.415-3.226-23.061-16.828-14.678
							c-7.994,4.926-48.451,29.224-40.302,54.069c10.388,31.67,48.482,23.914,53.985,23.151c5.504-0.762,5.645-3.193,5.645-3.193
							S1039.337,1103.905,1032.784,1103.342z"/>
					</g>
				</g>
			</g>
			<g>
				<path style="fill:#8FADEF;" d="M1821.892,1244.837h-210.257c-3.01,0-5.472-2.462-5.472-5.471V1117.17
					c0-3.01,2.462-5.472,5.472-5.472h210.257c3.009,0,5.472,2.462,5.472,5.472v122.196
					C1827.363,1242.375,1824.9,1244.837,1821.892,1244.837z"/>
			</g>
			<g>
				<path style="fill:#AEC3FF;" d="M1836.283,1244.837h-210.259c-3.009,0-5.472-2.462-5.472-5.471V1117.17
					c0-3.01,2.463-5.472,5.472-5.472h210.259c3.009,0,5.471,2.462,5.471,5.472v122.196
					C1841.754,1242.375,1839.292,1244.837,1836.283,1244.837z"/>
			</g>
			<g>
				<path style="fill:#FFB27D;" d="M1196.626,1185.955c-22.856-3.104-37.226-3.1-68.435-11.118l0,0l-0.022-0.005
					c-23.32-5.992-75.353-18.852-75.353-18.852s-9.614,22.863,0.21,37.794c9.825,14.932,70.066,18.558,70.066,18.558l0,0
					c15.783,2.375,30.785,3.775,39.523,3.578c24.373-0.554,85.403-8.383,85.403-8.383l0.756-13.753
					C1248.775,1193.774,1236.101,1191.314,1196.626,1185.955z"/>
			</g>
			<g>
				<path style="fill:#FFB27D;" d="M1243.484,1193.774c0,0,26.452,0.689,33.633,2.612c7.18,1.922,22.296,13.344,18.895,14.436
					c-3.4,1.091-26.925-1.837-30.893-1.554s-11.337,1.7-16.723-1.134C1243.012,1205.301,1243.484,1193.774,1243.484,1193.774z"/>
			</g>
			<g>
				<path style="fill:#506DB5;" d="M1161.652,1102.141c0,0-42.113,26.641-54.146,59.518c-12.033,32.877-8.69,102.598-8.69,102.598
					s70.189,4.535,138.371,0c68.183-4.534,290.834,9.394,324.924,6.843s44.052-5.952,44.052-5.952v-123.055
					c0,0-171.387-5.327-238.564-12.979C1300.422,1121.46,1210.988,1103.164,1161.652,1102.141z"/>
			</g>
		</g>
		<g>
			<path style="fill:#FFB27D;" d="M1171.467,1109.573c0,0-12.583,6.802-17.345,19.724l64.275,4.762l14.963-16.858L1171.467,1109.573
				z"/>
		</g>
	</g>
	<g>
		<g>
			<polygon style="fill:#D2E0FF;" points="1031.653,413.322 1031.653,580.119 1031.653,588.649 1041.58,588.649 1044.161,588.649 
				1044.161,587.343 1044.161,577.905 1044.161,412.455 			"/>
		</g>
		<g>
			<path style="fill:#8FADEF;" d="M1027.134,589.822c0-7.001,5.676-12.677,12.679-12.677c7.002,0,12.679,5.676,12.679,12.677
				c0,7.003-5.677,12.679-12.679,12.679C1032.81,602.501,1027.134,596.825,1027.134,589.822z"/>
		</g>
		<g>
			<path style="fill:#D2E0FF;" d="M981.572,723.503c0,0-26.313-67.368,35.49-118.713c61.803-51.343,167.477-40.12,201.639-7.699
				L981.572,723.503z"/>
		</g>
		<g>
			<g>
				<path style="fill:#ABDDDA;" d="M1234.561,615.817c18.639,39.417-22.113,97.783-91.021,130.363
					c-68.906,32.582-139.876,27.041-158.513-12.376c-18.638-39.418,22.114-97.783,91.021-130.364
					C1144.955,570.858,1215.924,576.399,1234.561,615.817z"/>
			</g>
			<g style="opacity:0.3;">
				<path style="fill:#FFFFFF;" d="M1184.938,639.28c11.226,23.739-13.318,58.892-54.819,78.516
					c-41.501,19.622-84.243,16.285-95.469-7.455c-11.225-23.739,13.319-58.892,54.82-78.515
					C1130.971,612.203,1173.713,615.541,1184.938,639.28z"/>
			</g>
			<g>
				<g>
					<path style="fill:#FFFFFF;" d="M1094.328,679.717c-2.171-4.592,2.577-11.393,10.604-15.188
						c8.028-3.797,16.296-3.15,18.468,1.441c2.171,4.593-2.576,11.392-10.604,15.188
						C1104.769,684.954,1096.5,684.31,1094.328,679.717z"/>
				</g>
				<g>
					<path style="fill:#FFFFFF;" d="M1021.297,671.533c-3.978-8.413,4.721-20.871,19.428-27.825
						c14.708-6.955,29.855-5.771,33.834,2.643c3.978,8.413-4.721,20.87-19.428,27.824
						C1040.423,681.129,1025.275,679.946,1021.297,671.533z"/>
				</g>
				<g>
					<path style="fill:#FFFFFF;" d="M1017.202,731.785c-3.979-8.413,4.72-20.87,19.428-27.825
						c14.707-6.954,29.854-5.772,33.833,2.642c3.979,8.413-4.72,20.87-19.428,27.825
						C1036.328,741.382,1021.18,740.199,1017.202,731.785z"/>
				</g>
				<g>
					<path style="fill:#FFFFFF;" d="M1106.894,631.06c-3.978-8.413,4.72-20.87,19.427-27.825
						c14.709-6.954,29.856-5.771,33.834,2.643c3.979,8.412-4.72,20.87-19.428,27.824
						C1126.019,640.656,1110.871,639.474,1106.894,631.06z"/>
				</g>
				<g>
					<path style="fill:#FFFFFF;" d="M1163.406,662.655c-3.979-8.413,4.721-20.871,19.428-27.825
						c14.708-6.953,29.855-5.771,33.834,2.642c3.979,8.414-4.721,20.872-19.428,27.826
						C1182.532,672.252,1167.385,671.069,1163.406,662.655z"/>
				</g>
				<g>
					<path style="fill:#FFFFFF;" d="M1102.669,728.652c-3.979-8.413,4.72-20.87,19.428-27.824
						c14.707-6.954,29.854-5.772,33.833,2.642c3.978,8.413-4.721,20.87-19.428,27.825
						C1121.795,738.249,1106.646,737.065,1102.669,728.652z"/>
				</g>
			</g>
		</g>
	</g>
	<g>
		<g>
			<polygon style="fill:#D2E0FF;" points="1513.816,533.454 1513.816,607.799 1513.816,616.144 1513.816,617.297 1516.121,617.297 
				1524.886,617.297 1524.886,609.747 1524.886,538.035 			"/>
		</g>
		<g>
			<path style="fill:#8FADEF;" d="M1528.884,618.336c0-6.196-5.023-11.221-11.22-11.221c-6.197,0-11.221,5.024-11.221,11.221
				c0,6.196,5.023,11.221,11.221,11.221C1523.86,629.557,1528.884,624.532,1528.884,618.336z"/>
		</g>
		<g>
			<path style="fill:#D2E0FF;" d="M1569.208,736.648c0,0,23.287-59.624-31.41-105.064c-54.697-45.441-148.224-35.51-178.458-6.816
				L1569.208,736.648z"/>
		</g>
		<g>
			<g>
				<path style="fill:#ABDDDA;" d="M1345.303,641.343c-16.496,34.885,19.571,86.542,80.557,115.377
					c60.985,28.836,123.796,23.932,140.291-10.954c16.495-34.886-19.572-86.543-80.557-115.378
					C1424.607,601.553,1361.797,606.456,1345.303,641.343z"/>
			</g>
			<g style="opacity:0.3;">
				<path style="fill:#FFFFFF;" d="M1389.221,662.108c-9.934,21.011,11.787,52.122,48.518,69.489
					c36.729,17.367,74.559,14.413,84.493-6.598c9.936-21.012-11.787-52.122-48.518-69.489
					C1436.984,638.144,1399.154,641.098,1389.221,662.108z"/>
			</g>
			<g style="opacity:0.8;">
				<g>
					<path style="fill:#FFFFFF;" d="M1469.414,697.896c1.922-4.064-2.28-10.082-9.385-13.441
						c-7.105-3.359-14.424-2.788-16.346,1.276c-1.922,4.064,2.28,10.082,9.387,13.441
						C1460.175,702.531,1467.492,701.96,1469.414,697.896z"/>
				</g>
				<g>
					<path style="fill:#FFFFFF;" d="M1534.05,690.653c3.521-7.446-4.177-18.472-17.193-24.627
						c-13.018-6.154-26.424-5.108-29.944,2.339c-3.521,7.445,4.177,18.472,17.194,24.626
						C1517.123,699.146,1530.529,698.099,1534.05,690.653z"/>
				</g>
				<g>
					<path style="fill:#FFFFFF;" d="M1537.674,743.979c3.521-7.446-4.177-18.472-17.194-24.627
						c-13.017-6.155-26.423-5.107-29.942,2.338c-3.521,7.446,4.176,18.472,17.193,24.627
						C1520.747,752.472,1534.154,751.426,1537.674,743.979z"/>
				</g>
				<g>
					<path style="fill:#FFFFFF;" d="M1458.293,654.833c3.521-7.446-4.178-18.472-17.193-24.627
						c-13.017-6.154-26.424-5.108-29.944,2.339c-3.521,7.446,4.178,18.472,17.194,24.626S1454.772,662.279,1458.293,654.833z"/>
				</g>
				<g>
					<path style="fill:#FFFFFF;" d="M1408.277,682.796c3.521-7.446-4.178-18.472-17.194-24.626
						c-13.017-6.155-26.423-5.108-29.944,2.338c-3.521,7.446,4.178,18.472,17.194,24.626
						C1391.35,691.289,1404.757,690.242,1408.277,682.796z"/>
				</g>
				<g>
					<path style="fill:#FFFFFF;" d="M1462.033,741.206c3.521-7.446-4.178-18.472-17.194-24.626
						c-13.017-6.155-26.424-5.107-29.943,2.338c-3.521,7.446,4.177,18.472,17.193,24.627
						C1445.106,749.699,1458.513,748.652,1462.033,741.206z"/>
				</g>
			</g>
		</g>
	</g>
	<g>
		<g>
			<path style="fill:#233862;" d="M1853.721,1458.019h-35.976c0.269-1.887,1.186-7.626,2.869-12.913
				c0.583-1.841,1.265-3.63,2.038-5.184c3.499-6.984,25.723-2.541,25.723-2.541s2.064,1.769,3.676,8.523
				C1852.765,1448.879,1853.394,1452.83,1853.721,1458.019z"/>
		</g>
		<g>
			<path style="fill:#ABDDDA;" d="M1787.677,908.489c0,0-28.667,5.033-35.148,21.955c-6.481,16.92-43.098,290.247-43.098,290.247
				s18.133,14.367,57.052,9.209C1805.404,1224.743,1787.677,908.489,1787.677,908.489z"/>
		</g>
		<g>
			<path style="fill:#233862;" d="M1745.006,1446.664c-0.099,4.895-0.715,9.527-2.49,11.354h-71.16
				c0.904-2.575,3.466-6.446,10.771-7.632c8.301-1.344,21.241-5.341,28.795-13.327c2.693-2.837,4.698-6.186,5.576-10.097
				c3.349-14.906,27.682,4.567,27.682,4.567S1745.163,1439.379,1745.006,1446.664z"/>
		</g>
		<g>
			<path style="fill:#5FABAF;" d="M1714.36,1439.417c7.953,2.536,23.151,10.281,32.808,6.638
				c6.239-2.351,41.118-103.244,43.379-147.373c0.168-3.208,0.798-7.686,1.786-13.145c2.065-11.389,5.68-27.039,9.841-44.309
				c11.162-46.272,26.259-104.16,25.932-122.662c-0.506-28.718-85.58-6.019-85.58-6.019s-5.853,23.556-7.02,57.661
				c-2.311,67.697-8.661,182.05-25.938,261.464C1708.836,1435.042,1711.063,1438.37,1714.36,1439.417z"/>
		</g>
		<g>
			<path style="fill:#6BB7BF;" d="M1773.408,1118.666l44.974,325.959c0,0,19.75,4.762,35.112,0.952
				c0,0,13.166-173.36,12.069-215.271c-1.099-41.91,9.449-112.146-2.407-119.893
				C1851.299,1102.668,1773.408,1118.666,1773.408,1118.666z"/>
		</g>
		<g>
			<path style="fill:#8FADEF;" d="M1868.841,923.421c0,0-47.264-30.56-81.164-14.932c-5.401,2.49-11.564,9.44-15.976,14.302
				c-12.253,13.502-36.197,227.993-36.197,227.993s67.969,23.02,133.337-7.813V923.421z"/>
		</g>
		<g>
			<path style="fill:#ABDDDA;" d="M1784.988,907.714c0,0-47.848,19.609-54.329,34.676c-6.48,15.067-49.076,102.824-27.543,118.44
				c8.783,6.37,36.674,2.426,42.577-15.073c4.903-14.53,21.438-59.17,30.159-87.404L1784.988,907.714z"/>
		</g>
		<g>
			<g>
				<path style="fill:#FFB27D;" d="M1794.926,922.656c10.445,2.048,25.788-0.135,37.022-7.54
					c-5.071-12.114-7.151-21.68-7.891-27.869c-0.044-0.329-0.076-0.647-0.108-0.955c-0.335-3.209-0.286-5.385-0.129-6.384h-27.006
					c0,0-7.382,3.375-7.382,5.709c0,1.247-0.011,2.44-0.032,3.581c-0.055,3.104-0.18,5.816-0.341,8.144
					c-0.513,7.577-1.383,11.148-1.383,11.148S1784.378,920.588,1794.926,922.656z"/>
			</g>
			<g>
				<path style="fill:#E2915A;" d="M1789.06,897.342c20.458,3.954,32.335-7.227,34.998-10.095c0.378-0.41,0.572-0.652,0.572-0.652
					c-0.216-0.108-0.443-0.205-0.681-0.303c-7.615-3.085-24.898-0.632-34.549,2.906
					C1789.346,892.303,1789.221,895.015,1789.06,897.342z"/>
			</g>
			<g>
				<path style="fill:#FFB27D;" d="M1830.74,875.469c-3.656,19.677-29.045,19.03-40.017,17.794c-3.088-0.345-5.03-0.738-5.03-0.738
					c-3.481-0.93-5.424-6.413-6.326-13.597c-1.791-14.216,0.472-35.083,2.872-40.42c3.614-8.03,10.422-16.716,35.99-10.448
					C1843.801,834.33,1835.431,850.259,1830.74,875.469z"/>
			</g>
			<g>
				<path style="fill:#233862;" d="M1781.288,827.533c3.494-4.839,10.903-10.749,17.634-14.391
					c14.457-7.821,32.959,0.246,33.036,0.28c20.884,9.181,26.338,25.159,15.266,50.049c-11.708,26.317-22.855,23.356-22.855,23.356
					s2.365-1.472,2.151-9.675c-0.012-0.467-0.03-0.855-0.052-1.191c-0.107-1.68,0.485-3.366,1.742-4.487
					c2.594-2.315,3.857-9.316,1.687-11.267c-2.621-2.352-6.304,0.505-7.479,2.702c-1.027,1.551-2.869,2.095-4.583,1.011
					c-6.5-4.109-2.277-12.327-8.488-17.355c-6.211-5.027-18.814-0.806-28.132-4.813
					C1769.018,837.208,1778.654,831.179,1781.288,827.533z"/>
			</g>
		</g>
		<g>
			<path style="fill:#ABDDDA;" d="M1778.378,1240.773c4.116,1.059,8.188,1.928,12.238,2.598c3.581,0.611,7.146,1.064,10.716,1.366
				c20.227,1.761,40.544-1.085,64.292-7.896c5.347-1.533,10.872-3.271,16.608-5.2c0.609-0.205-1.562-63.002-4.067-127.774
				c-0.254-6.687-0.519-13.399-0.777-20.063c-0.113-2.825-0.222-5.634-0.335-8.437c-2.274-57.287-4.526-109.022-5.002-111.81
				c-1.085-6.303-2.101-11.677-3.207-16.332c-3.235-13.573-7.254-21.015-16.014-27.415c-0.854-0.648-7.859-4.181-14.037-7.254
				c-5.121-2.543-9.668-4.764-9.668-4.764c-0.006,0-0.006,0-0.006,0c-2.036,0.999-4.482,5.666-7.042,12.217
				c-4.705,12.077-9.781,30.569-13.313,44.38c-0.012,0.037-0.017,0.06-0.017,0.069c0,0.006,0,0.006,0,0.006
				c-2.273,8.917-3.904,15.862-4.369,17.855c-0.788,3.364-1.831,9.878-3.058,18.709c-1.663,12.017-3.65,28.328-5.752,46.837
				c-0.215,1.9-0.431,3.828-0.647,5.772c-0.248,2.221-0.502,4.467-0.75,6.735c-0.081,0.729-0.163,1.458-0.238,2.188
				c-0.81,7.329-1.625,14.896-2.436,22.587c-0.675,6.356-10.315,10.952-10.979,17.417c-0.384,3.797-1.186,38.826-2.217,50.005
				C1777.561,1160.552,1778.087,1237.02,1778.378,1240.773z"/>
		</g>
		<g>
			<path style="fill:#6BB7BF;" d="M1848.134,986.651c0.03,0.13,1.638,57.93-41.839,64.951c-43.478,7.021-14.59,8.877-14.59,8.877
				s81.803-3.477,83.152-5.637C1876.208,1052.682,1848.134,986.651,1848.134,986.651z"/>
		</g>
		<g>
			<path style="fill:#6BB7BF;" d="M1811.399,1076.413c0,0,0.815,0.578,2.382,1.589c0.026,0.011,0.054,0.032,0.08,0.049
				c6.633,4.234,26.319,15.775,54.982,23.515c3.008,0.815,6.118,1.588,9.321,2.301c-0.254-6.687-0.519-13.399-0.777-20.063
				c3.786-0.298,7.409-0.778,10.774-1.491c-0.113-0.88-0.232-1.761-0.346-2.642c-3.646-1.495-7.27-2.938-10.764-4.304
				c-2.847-1.112-5.602-2.172-8.209-3.154c-11.775-4.472-20.503-7.502-20.503-7.502l-34.852,11.04L1811.399,1076.413z"/>
		</g>
		<g>
			<path style="fill:#ABDDDA;" d="M1802.174,1075.447c0,0,4.479,1.118,11.607,2.555c0.026,0,0.048,0.006,0.075,0.016
				c13.146,2.641,35.247,6.346,54.987,6.146c2.91-0.032,5.773-0.146,8.544-0.361c3.786-0.298,7.409-0.778,10.774-1.491
				c7.216-1.523,13.259-4.1,17.213-8.128c29.364-29.911-16.024-137.259-25.568-147.704c-11.142-12.195-31.477-16.472-42.705-17.941
				c-0.47-0.06-0.918-0.119-1.355-0.173c-3.948-0.47-6.48-0.566-6.621-0.573c-0.006,0-0.006,0-0.006,0s0.881,2.83,2.355,7.632
				c0.572,1.857,1.236,4.013,1.966,6.416c6.896,22.587,20.205,66.977,26.07,92.01c2.148,9.16,3.3,15.728,2.776,17.688
				c-2.291,8.55-26.017,12.947-41.047,14.891c-6.271,0.811-11.029,1.193-12.094,1.275c-0.075,0-0.146,0.005-0.221,0.016l-0.87,3.564
				l-2.079,8.55l-2.047,8.398L1802.174,1075.447z"/>
		</g>
		<g>
			<polygon style="fill:#233862;" points="1720.274,1126.903 1821.124,1122.654 1800.664,996.971 1699.814,1001.221 			"/>
		</g>
		<g>
			<path style="fill:#FFB27D;" d="M1808.925,1047.72c0,0-19.631-1.369-20.615,3.207c-2.296,10.667,16.877,19.426,23.088,18.827
				S1813.443,1047.008,1808.925,1047.72z"/>
		</g>
		<g>
			<path style="fill:#FFB27D;" d="M1705.328,1026.742c0,0,18.781-5.873,20.799-1.648c4.7,9.846-11.927,22.803-18.108,23.657
				C1701.838,1049.605,1700.767,1027.095,1705.328,1026.742z"/>
		</g>
		<g>
			<path style="fill:#6BB7BF;" d="M1827.083,901.481c0,0,9.317,1.615,13.458,7.557c0,0-31.931,55.922-31.792,55.419
				C1808.887,963.955,1819.184,908.348,1827.083,901.481z"/>
		</g>
		<g>
			<path style="fill:#6BB7BF;" d="M1788.632,902.237c-2.72,1.025-7.935,6.368-9.109,9.322l-3.67,46.793
				c0,0,7.835-34.341,11.824-49.863C1788.691,904.543,1788.504,903.345,1788.632,902.237z"/>
		</g>
		<g>
			<path style="fill:#C65447;" d="M1767.232,998.38c0,0-0.797-3.487-5.388-3.082c-4.591,0.404-30.381,1.673-30.381,1.673
				s-4.974-0.08-4.512,3.106L1767.232,998.38z"/>
		</g>
	</g>
	<g>
		<path style="fill:#2E3552;" d="M2680.922,1462.421H113.331c-1.495,0-2.718-1.224-2.718-2.719v-0.496
			c0-1.495,1.224-2.719,2.718-2.719h2567.591c1.494,0,2.719,1.224,2.719,2.719v0.496
			C2683.641,1461.197,2682.416,1462.421,2680.922,1462.421z"/>
	</g>
</g>
</svg>
